# xmcd
#
# Track frame offsets:
#	150
#	9754
#	22849
#	33814
#	45829
#	57511
#	70488
#	78869
#	90696
#	102903
#	114546
#	127594
#	138071
#	151940
#	165239
#	176921
#	189785
#	201201
#	215458
#	227632
#	239340
#	252370
#	264219
#	273854
#	288722
#	301070
#	313307
#	324572
#	335218
#	346510
#
# Disc length: 4775
#
# Revision: 1
# Processed by: cddbd v1.5.1PL0 Copyright (c) Steve Scherf et al.
# Submitted via: EasyCDDAExtractor 4.6.0.1
# Normalized: r0:TDELIM( - )
#
DISCID=8812a51e
DTITLE=Various Artist - A Million Dollars Worth Of Doo-Wop  Vol 6
DYEAR=1900
DGENRE=blues
TTITLE0=Infatuators - I Found My Love
TTITLE1=Valiants - Wedding Bells
TTITLE2=Remarkables - Write Me
TTITLE3=Drippers - Such A Fool Was I
TTITLE4=Links - She's The One
TTITLE5=Celebritys - We Made Romance
TTITLE6=Premiers - Little Angel Face
TTITLE7=Calendars - You Don't Fall In Love
TTITLE8=Ebb Tides - What's Your Name Dear
TTITLE9=El Reyes - Mr. Moonglow
TTITLE10=Freeloaders - Nursery Love
TTITLE11=Murfreesboros - Oh My Love
TTITLE12=Pretenders - Blue And Lonely
TTITLE13=Visions - Go Where Ever Rainbows Go
TTITLE14=Cheerios - Where Are You Tonight
TTITLE15=Del-Rios - Alone On A Rainy Night
TTITLE16=Stylists - Mourning
TTITLE17=Impressions (Gloria Ramsey and the) - My Love
TTITLE18=Themes - Cross My Heart
TTITLE19=Lyrics - Got To Get Along
TTITLE20=Esquires - My Dearest, My Darling
TTITLE21=Holidays - Got My Letter
TTITLE22=Jupiters - It Takes Two
TTITLE23=Boardwalkers - She Wont Go Steady
TTITLE24=Exciting Invictas - I Don't Care
TTITLE25=Magic-Tones - Tears In My Eyes
TTITLE26=El Vireos - First Kiss
TTITLE27=Everglades - While Sitting In The Chapel
TTITLE28=Spears - Why Did It End
TTITLE29=Inconquerables - Wait For Me
EXTD=
EXTT0=
EXTT1=
EXTT2=
EXTT3=
EXTT4=
EXTT5=
EXTT6=
EXTT7=
EXTT8=
EXTT9=
EXTT10=
EXTT11=
EXTT12=
EXTT13=
EXTT14=
EXTT15=
EXTT16=
EXTT17=
EXTT18=
EXTT19=
EXTT20=
EXTT21=
EXTT22=
EXTT23=
EXTT24=
EXTT25=
EXTT26=
EXTT27=
EXTT28=
EXTT29=
PLAYORDER=
